<svg xmlns="http://www.w3.org/2000/svg" xmlns:xlink="http://www.w3.org/1999/xlink" xmlns:lucid="lucid" width="1780" height="820"><g transform="translate(0 -80)" lucid:page-tab-id="0_0"><path d="M495.2 243.6c2.65-2 6.95-2 9.6 0l70.4 52.8c2.65 2 2.65 5.2 0 7.2l-70.4 52.8c-2.65 2-6.95 2-9.6 0l-70.4-52.8c-2.65-2-2.65-5.2 0-7.2z" stroke="#5e5e5e" stroke-width="3" fill="#fff"/><use xlink:href="#a" transform="matrix(1,0,0,1,425,245) translate(32.59506076388891 52.1484375)"/><use xlink:href="#b" transform="matrix(1,0,0,1,425,245) translate(53.46094618055557 52.1484375)"/><use xlink:href="#c" transform="matrix(1,0,0,1,425,245) translate(75.68316840277778 52.1484375)"/><use xlink:href="#d" transform="matrix(1,0,0,1,425,245) translate(96.54905381944444 52.1484375)"/><use xlink:href="#e" transform="matrix(1,0,0,1,425,245) translate(53.46094618055557 74.37065972222223)"/><use xlink:href="#f" transform="matrix(1,0,0,1,425,245) translate(75.68316840277778 74.37065972222223)"/><path d="M160 246c0-3.3 2.7-6 6-6h148c3.3 0 6 2.7 6 6v108c0 3.3-2.7 6-6 6H166c-3.3 0-6-2.7-6-6z" stroke="#5e5e5e" stroke-width="3" fill="#fff"/><use xlink:href="#g" transform="matrix(1,0,0,1,172,252) translate(31.703703703703702 53.77777777777778)"/><path d="M720 246c0-3.3 2.7-6 6-6h148c3.3 0 6 2.7 6 6v108c0 3.3-2.7 6-6 6H726c-3.3 0-6-2.7-6-6z" stroke="#5e5e5e" stroke-width="3" fill="#fff"/><use xlink:href="#h" transform="matrix(1,0,0,1,732,252) translate(36.05555555555556 53.77777777777778)"/><path d="M720 607.42c0-3.32 2.7-6 6-6h148c3.3 0 6 2.68 6 6v108c0 3.3-2.7 6-6 6H726c-3.3 0-6-2.7-6-6z" stroke="#5e5e5e" stroke-width="3" fill="#fff"/><use xlink:href="#i" transform="matrix(1,0,0,1,732,613.4173228346456) translate(39.08024691358025 53.77777777777778)"/><path d="M1460 246c0-3.3 2.7-6 6-6h148c3.3 0 6 2.7 6 6v108c0 3.3-2.7 6-6 6h-148c-3.3 0-6-2.7-6-6z" stroke="#5e5e5e" stroke-width="3" fill="#fff"/><use xlink:href="#j" transform="matrix(1,0,0,1,1472,252) translate(35.9320987654321 53.77777777777778)"/><path d="M140 150c0 16.57-26.86 30-60 30s-60-13.43-60-30 26.86-30 60-30 60 13.43 60 30z" stroke="#5e5e5e" stroke-width="3" fill="#fff"/><use xlink:href="#k" transform="matrix(1,0,0,1,25,125) translate(46.36302469135803 30.27777777777778)"/><path d="M300 130c0 16.57-26.86 30-60 30s-60-13.43-60-30 26.86-30 60-30 60 13.43 60 30z" stroke="#5e5e5e" stroke-width="3" fill="#fff"/><use xlink:href="#l" transform="matrix(1,0,0,1,185,105) translate(30.992654320987654 30.27777777777778)"/><path d="M157.5 300H88.67c-3.32 0-6-2.7-6-6V182.4" stroke="#5e5e5e" stroke-width="2" fill="none"/><path d="M158.5 301h-1.03v-2h1.03M83.67 182.43h-2v-1l2-.06" fill="#5e5e5e"/><path d="M240 237.5v-75" stroke="#5e5e5e" stroke-width="2" fill="none"/><path d="M241 238.5h-2v-1.03h2M240 161.5l1-.03v1.06h-2v-1.07" fill="#5e5e5e"/><path d="M720 150c0 16.57-26.86 30-60 30s-60-13.43-60-30 26.86-30 60-30 60 13.43 60 30z" stroke="#5e5e5e" stroke-width="3" fill="#fff"/><use xlink:href="#k" transform="matrix(1,0,0,1,605,125) translate(46.36302469135803 30.27777777777778)"/><path d="M860 150c0 16.57-26.86 30-60 30s-60-13.43-60-30 26.86-30 60-30 60 13.43 60 30z" stroke="#5e5e5e" stroke-width="3" fill="#fff"/><use xlink:href="#l" transform="matrix(1,0,0,1,745,125) translate(30.992654320987654 30.27777777777778)"/><path d="M800 850c0 16.57-26.86 30-60 30s-60-13.43-60-30 26.86-30 60-30 60 13.43 60 30z" stroke="#5e5e5e" stroke-width="3" fill="#fff"/><use xlink:href="#k" transform="matrix(1,0,0,1,685,825) translate(46.36302469135803 30.27777777777778)"/><path d="M922.67 850c0 16.57-26.87 30-60 30-33.14 0-60-13.43-60-30s26.86-30 60-30c33.13 0 60 13.43 60 30z" stroke="#5e5e5e" stroke-width="3" fill="#fff"/><use xlink:href="#l" transform="matrix(1,0,0,1,807.6666666666665,825) translate(30.992654320987654 30.27777777777778)"/><path d="M1460 150c0 16.57-26.86 30-60 30s-60-13.43-60-30 26.86-30 60-30 60 13.43 60 30z" stroke="#5e5e5e" stroke-width="3" fill="#fff"/><use xlink:href="#k" transform="matrix(1,0,0,1,1345,125) translate(46.36302469135803 30.27777777777778)"/><path d="M1600 150c0 16.57-26.86 30-60 30s-60-13.43-60-30 26.86-30 60-30 60 13.43 60 30z" stroke="#5e5e5e" stroke-width="3" fill="#fff"/><use xlink:href="#l" transform="matrix(1,0,0,1,1485,125) translate(30.992654320987654 30.27777777777778)"/><path d="M1000 150c0 16.57-26.86 30-60 30s-60-13.43-60-30 26.86-30 60-30 60 13.43 60 30z" stroke="#5e5e5e" stroke-width="3" fill="#fff"/><use xlink:href="#m" transform="matrix(1,0,0,1,885,125) translate(13.122283950617282 30.27777777777778)"/><path d="M1760 150c0 16.57-26.86 30-60 30s-60-13.43-60-30 26.86-30 60-30 60 13.43 60 30z" stroke="#5e5e5e" stroke-width="3" fill="#fff"/><use xlink:href="#m" transform="matrix(1,0,0,1,1645,125) translate(13.122283950617282 30.27777777777778)"/><path d="M757.13 237.5V216c0-3.3-2.7-6-6-6H666c-3.3 0-6-2.7-6-6v-21.5" stroke="#5e5e5e" stroke-width="2" fill="none"/><path d="M758.13 238.5h-2v-1.03h2M660 181.5l1-.03v1.06h-2v-1.07" fill="#5e5e5e"/><path d="M800 182.5v55" stroke="#5e5e5e" stroke-width="2" fill="none"/><path d="M800 181.5l1-.03v1.06h-2v-1.07M801 238.5h-2v-1.03h2" fill="#5e5e5e"/><path d="M862.16 237.5V216c0-3.3 2.68-6 6-6H934c3.3 0 6-2.7 6-6v-21.5" stroke="#5e5e5e" stroke-width="2" fill="none"/><path d="M863.16 238.5h-2v-1.03h2M940 181.5l1-.03v1.06h-2v-1.07M644.1 301h-64.5v-2h64.5m73.4 2H653v-2h64.5" fill="#5e5e5e"/><path d="M579.64 301h-1.1l.18-.4-.28-1.6h1.2M718.5 301h-1.03v-2h1.03" fill="#5e5e5e"/><use xlink:href="#n" transform="matrix(1,0,0,1,644.1111180753493,289.3333333333333) translate(0 14.222222222222223)"/><path d="M366.5 301h-44v-2h44m53.9 2h-44.02v-2h44" fill="#5e5e5e"/><path d="M421.28 299.4l.28 1.6h-1.2v-2h1.1M322.53 301h-1.03v-2h1.03" fill="#5e5e5e"/><use xlink:href="#o" transform="matrix(1,0,0,1,366.50616587526804,289.3333333333333) translate(0 14.222222222222223)"/><path d="M235.2 503.6c2.65-2 6.95-2 9.6 0l70.4 52.8c2.65 2 2.65 5.2 0 7.2l-70.4 52.8c-2.65 2-6.95 2-9.6 0l-70.4-52.8c-2.65-2-2.65-5.2 0-7.2z" stroke="#5e5e5e" stroke-width="3" fill="#fff"/><use xlink:href="#p" transform="matrix(1,0,0,1,165,505) translate(22.16211805555556 62.4609375)"/><use xlink:href="#q" transform="matrix(1,0,0,1,165,505) translate(44.38434027777778 62.4609375)"/><use xlink:href="#r" transform="matrix(1,0,0,1,165,505) translate(65.25022569444445 62.4609375)"/><use xlink:href="#s" transform="matrix(1,0,0,1,165,505) translate(86.11611111111111 62.4609375)"/><use xlink:href="#f" transform="matrix(1,0,0,1,165,505) translate(106.98199652777778 62.4609375)"/><path d="M745.33 723.92v93.8" stroke="#5e5e5e" stroke-width="2" fill="none"/><path d="M746.33 723.94h-2v-1.02h2M746.33 818.76l-2-.08v-1h2" fill="#5e5e5e"/><path d="M862.67 723.92v93.58" stroke="#5e5e5e" stroke-width="2" fill="none"/><path d="M863.67 723.94h-2v-1.02h2M863.67 818.54l-1-.04-1 .03v-1.06h2M241 499.67h-2v-42.34h2m0-21.33h-2v-73.5h2" fill="#5e5e5e"/><path d="M241 362.53h-2v-1.03h2M241 500.7l-2-.05v-1h2" fill="#5e5e5e"/><use xlink:href="#o" transform="matrix(1,0,0,1,235.06172839506175,435.999) translate(0 14.222222222222223)"/><path d="M241 655.28l.7 2.65 1.8 1.77 2.63.72h204.7v2H245.86l-3.42-.93-2.53-2.54-.92-3.4v-35.23h2m476.5 40.1v2H465.6v-2" fill="#5e5e5e"/><path d="M241 619.35v1h-2v-1.04M718.5 662.42h-1.03v-2h1.03" fill="#5e5e5e"/><use xlink:href="#t" transform="matrix(1,0,0,1,450.8233385151669,650.750656167979) translate(0 14.222222222222223)"/><path d="M1115.2 243.6c2.65-2 6.95-2 9.6 0l70.4 52.8c2.65 2 2.65 5.2 0 7.2l-70.4 52.8c-2.65 2-6.95 2-9.6 0l-70.4-52.8c-2.65-2-2.65-5.2 0-7.2z" stroke="#5e5e5e" stroke-width="3" fill="#fff"/><use xlink:href="#a" transform="matrix(1,0,0,1,1045,245) translate(31.238723958333335 52.1484375)"/><use xlink:href="#b" transform="matrix(1,0,0,1,1045,245) translate(52.104609374999995 52.1484375)"/><use xlink:href="#u" transform="matrix(1,0,0,1,1045,245) translate(74.32683159722221 52.1484375)"/><use xlink:href="#v" transform="matrix(1,0,0,1,1045,245) translate(96.54905381944444 52.1484375)"/><use xlink:href="#w" transform="matrix(1,0,0,1,1045,245) translate(53.46094618055557 74.37065972222223)"/><use xlink:href="#x" transform="matrix(1,0,0,1,1045,245) translate(75.68316840277778 74.37065972222223)"/><path d="M957 301h-74.5v-2H957m83.4 2h-74.5v-2h74.5" fill="#5e5e5e"/><path d="M1041.28 299.4l.28 1.6h-1.2v-2h1.1M882.53 301h-1.03v-2h1.03" fill="#5e5e5e"/><use xlink:href="#n" transform="matrix(1,0,0,1,956.9999930357618,289.3333333333333) translate(0 14.222222222222223)"/><path d="M955.06 480.62H806.13l-2.64.72-1.8 1.77-.7 2.66v113.16h-2V485.5l.92-3.42 2.53-2.53 3.42-.93h149.2m165.93-4.86l-.92 3.4-2.53 2.54-3.42.92h-149.2v-2h148.94l2.64-.7 1.8-1.8.7-2.63V360.32h2" fill="#5e5e5e"/><path d="M1121 359.35v1h-2v-1.04M801 599.92h-2v-1.03h2" fill="#5e5e5e"/><use xlink:href="#o" transform="matrix(1,0,0,1,955.0617283950618,468.9567107325285) translate(0 14.222222222222223)"/><path d="M1400 182.5V274c0 3.3 2.7 6 6 6h51.5" stroke="#5e5e5e" stroke-width="2" fill="none"/><path d="M1400 181.5l1-.03v1.06h-2v-1.07M1458.5 281h-1.03v-2h1.03" fill="#5e5e5e"/><path d="M1540 182.5v55" stroke="#5e5e5e" stroke-width="2" fill="none"/><path d="M1540 181.5l1-.03v1.06h-2v-1.07M1541 238.5h-2v-1.03h2" fill="#5e5e5e"/><path d="M1700 182.5V274c0 3.3-2.7 6-6 6h-71.5" stroke="#5e5e5e" stroke-width="2" fill="none"/><path d="M1700 181.5l1-.03v1.06h-2v-1.07M1622.53 281h-1.03v-2h1.03" fill="#5e5e5e"/><path d="M1275.2 603.6c2.65-2 6.95-2 9.6 0l70.4 52.8c2.65 2 2.65 5.2 0 7.2l-70.4 52.8c-2.65 2-6.95 2-9.6 0l-70.4-52.8c-2.65-2-2.65-5.2 0-7.2z" stroke="#5e5e5e" stroke-width="3" fill="#fff"/><g><use xlink:href="#y" transform="matrix(1,0,0,1,1205,605) translate(31.23872395833333 62.4609375)"/><use xlink:href="#z" transform="matrix(1,0,0,1,1205,605) translate(53.46094618055555 62.4609375)"/><use xlink:href="#A" transform="matrix(1,0,0,1,1205,605) translate(74.32683159722222 62.4609375)"/><use xlink:href="#B" transform="matrix(1,0,0,1,1205,605) translate(96.54905381944444 62.4609375)"/></g><path d="M1034.12 662.42H882.5v-2h151.62m166.38 1.25h-151.62v-2h151.62" fill="#5e5e5e"/><path d="M882.53 662.42h-1.03v-2h1.03M1201.68 661.67h-1.2v-2h.85" fill="#5e5e5e"/><g><use xlink:href="#t" transform="matrix(1,0,0,1,1034.1192988992323,650.3772787687838) translate(0 14.222222222222223)"/></g><path d="M1541 654.13l-.92 3.42-2.53 2.53-3.42.92H1359.6v-2h174.27l2.64-.7 1.8-1.8.7-2.63V612.1h2m0-21.32h-2V362.5h2" fill="#5e5e5e"/><path d="M1359.64 661h-1.1l.18-.4-.28-1.6h1.2M1541 362.53h-2v-1.03h2" fill="#5e5e5e"/><g><use xlink:href="#o" transform="matrix(1,0,0,1,1535.0617283950617,590.7777708135396) translate(0 14.222222222222223)"/></g><defs><path fill="#333" d="M751-28c91 148 523 57 774 57 80-40 63-119 80-222l119 46c28 330-279 330-603 313-233-11-501 46-501-154v-449c-142 80-284 142-438 205l-57-114c319-114 603-279 848-472H154v-108h637v-284H336v-114h455v-267h131v267h410v114H922v284h182c188-165 347-358 478-569l108 68c-119 182-256 353-410 501h495v108h-614c-131 114-267 210-410 302v165c273-46 535-137 751-245l80 108c-245 97-535 193-831 245v216" id="C"/><use transform="matrix(0.010850694444444444,0,0,0.010850694444444444,0,0)" xlink:href="#C" id="a"/><path fill="#333" d="M341-592c91-23 63-154 6-239-40-63-108-131-193-216 51 165 102 210 137 410 11 28 28 46 51 46zm251-739c-6-46 91-80 0-97-40-6-80-11-125-28 40 165 17 609 23 848 17 438-142 705-387 887l17 11c302-182 472-438 472-933v-688zm1200 546c0-46 114-85 46-125-28-17-57-40-85-80-63 97-262 57-415 63v-330h478c63 0 57-40 11-63-51-23-85-63-114-102l-97 114H717l34 51h484v330c-171-6-375 23-466-63 68 290-11 711 34 1024 28-11 74-17 85-40v-865h347V301c23 28 91-11 102-40V-871h353v660c-6 142-131 51-250 40v23c108 34 165 85 210 148 51-11 142-91 142-171v-614" id="D"/><use transform="matrix(0.010850694444444444,0,0,0.010850694444444444,0,0)" xlink:href="#D" id="b"/><path fill="#333" d="M779-870v-666h893v666H779zM506 125C699-23 819-211 853-512l125 28c-11 91-28 176-51 250 63 97 142 159 245 205v-575H688v-114h1104v114h-489v239h404v114h-404V16c137 40 324 34 506 34-28 74-23 159-165 131-358 0-609-80-774-290-63 125-159 233-284 336zM119-529l216-85v-484H130v-114h205v-381h125v381h199v114H460v427l182-91v131l-182 91V46c23 176-131 176-296 159L136 74c57 11 199 51 199-46v-506l-182 80zm791-449h631v-176H910v176zm0-274h631v-165H910v165" id="E"/><use transform="matrix(0.010850694444444444,0,0,0.010850694444444444,0,0)" xlink:href="#E" id="c"/><path fill="#333" d="M518-421v-114h319v-484H581v-108h256v-444h131v444h336v-444h131v444h279v108h-279v484h364v114H519zm79-1132c-40 154-85 296-137 438V239H335l6-1087-176 273-57-131c165-250 307-540 370-887zM967-535h336v-484H967v484zm762 768c-176-131-347-296-484-466l97-74c125 165 302 313 472 432zM489 148C654 29 808-125 921-301l108 68C915-45 750 114 580 245" id="F"/><use transform="matrix(0.010850694444444444,0,0,0.010850694444444444,0,0)" xlink:href="#F" id="d"/><path fill="#333" d="M466-1195c68-11 80-125 6-165-34-17-119-102-188-97 74 85 91 102 131 216 11 28 28 46 51 46zm-85 433c91-228 222-319 324-518-148 148-273 267-364 381-46 57-148 17-199 63 210-11 74 262 233 284 97-23 28-154 6-210zm643-541c0-63 148-102 63-137-28-11-63-28-102-57-51 228-154 387-296 523l17 17c125-85 199-171 284-290h256c-74 319-273 421-597 506l6 17c319-57 512-148 637-364 68 199 228 284 421 353 46-51 137-46 188-74-284-46-484-125-586-324 17-34 28-68 40-114h319c-51 85-97 154-142 199 91 17 148-154 284-159 102-63-68-97-91-159l-63 63h-637zm506 745c6-40 137-74 34-108-23-17-51-40-80-74l-68 68H585l-108-51c51 199 11 466 23 700 11 40 80-6 91-23v-569h848v569c6 51 51 0 74 0 51-125 0-353 17-512zm-466 279c-34-102 80-171-11-188-40-6-80-17-125-34 57 46 40 444-51 478-193 188-347 222-711 307l6 17c432-85 853-114 893-580zm40 245c290 102 444 222 620 324 91-17 40-108-17-148-80-57-279-125-597-205" id="G"/><use transform="matrix(0.010850694444444444,0,0,0.010850694444444444,0,0)" xlink:href="#G" id="e"/><path fill="#333" d="M631-785c63 142 154 267 245 370l-74 108c-85-97-159-210-216-336l11 882H466l17-859C420-410 307-205 199-51l-80-125c131-165 245-364 313-609H148v-114h319v-694h131v694h302v114H633zm837 1024v-546L882-148l-40-125 626-165v-1155h131v1121l193-51 23 119-216 57v586h-131zM643-1030c63-142 108-267 142-432l114 34c-40 159-85 307-148 449zm375 91c125 91 205 165 302 279l-85 102c-102-108-176-205-296-284zm-751-512c46 131 91 284 119 427l-108 46c-28-148-74-302-119-427zm808 12c119 91 205 171 307 284l-85 97c-102-119-182-193-302-290" id="H"/><use transform="matrix(0.010850694444444444,0,0,0.010850694444444444,0,0)" xlink:href="#H" id="f"/><path fill="#333" d="M126-118c4-37-42-32-68-25v131l24 4v8H8C5-13 21-9 28-12v-141c-7-3-23 1-20-12h48l1 13c22-15 77-30 92 2 32-22 104-36 104 29v109c8 3 24-2 21 12h-75v-8l25-4v-106c3-39-45-31-72-24 7 37 1 88 3 130l25 4v8h-78v-8l24-4v-106" id="I"/><path fill="#333" d="M32-163c41-10 102-14 102 39v112c8 3 24-2 21 12h-45l-4-17C83 13 3 13 13-46c-2-50 45-50 92-51 4-36-5-70-42-56-6 2-12 4-16 6-4 7 0 23-15 20v-36zM42-47c0 41 41 33 63 22v-59c-34 1-63-1-63 37" id="J"/><path fill="#333" d="M54-38c-1 25 24 26 44 20v12C71 10 25 9 25-35v-115H4c-2-14 14-10 21-15l18-38h11v38h38v15H54v112" id="K"/><path fill="#333" d="M84-170c49 0 66 33 63 87H46c-8 60 38 80 95 63v10C128-2 108 4 88 4 34 4 14-29 14-84c-1-54 22-86 70-86zm33 73c12-57-57-82-69-24-1 7-2 15-2 24h71" id="L"/><path fill="#333" d="M57-145c16-10 35-24 60-25v45c-19 1-8-30-40-17l-20 6v124l29 4v8H7v-8l21-4v-141c-8-3-24 2-21-12h48" id="M"/><path fill="#333" d="M47-200c-23 0-25-39 0-38 13 0 18 7 20 19-1 11-8 19-20 19zM65-12l28 4v8H8v-8l28-4v-141l-24-4v-8h53v153" id="N"/><path fill="#333" d="M65-12l28 4v8H7v-8l28-4v-226l-28-4v-8h58v238" id="O"/><g id="g"><use transform="matrix(0.06172839506172839,0,0,0.06172839506172839,0,0)" xlink:href="#I"/><use transform="matrix(0.06172839506172839,0,0,0.06172839506172839,17.28395061728395,0)" xlink:href="#J"/><use transform="matrix(0.06172839506172839,0,0,0.06172839506172839,27.098765432098766,0)" xlink:href="#K"/><use transform="matrix(0.06172839506172839,0,0,0.06172839506172839,33.27160493827161,0)" xlink:href="#L"/><use transform="matrix(0.06172839506172839,0,0,0.06172839506172839,43.086419753086425,0)" xlink:href="#M"/><use transform="matrix(0.06172839506172839,0,0,0.06172839506172839,50.4320987654321,0)" xlink:href="#N"/><use transform="matrix(0.06172839506172839,0,0,0.06172839506172839,56.604938271604944,0)" xlink:href="#J"/><use transform="matrix(0.06172839506172839,0,0,0.06172839506172839,66.41975308641976,0)" xlink:href="#O"/></g><path fill="#333" d="M45-84c0 64 52 80 104 63 1 25-30 25-55 25-56 0-80-32-80-88 0-76 62-98 131-80v46h-10c-5-15-4-31-23-35-47-10-67 21-67 69" id="P"/><path fill="#333" d="M126-119c3-38-42-31-69-25v132l23 4v8H7v-8l21-4v-226l-24-4v-8h53l-1 98c31-22 99-31 99 31v109c7 3 23-1 20 12h-71v-8l22-4v-107" id="Q"/><g id="h"><use transform="matrix(0.06172839506172839,0,0,0.06172839506172839,0,0)" xlink:href="#K"/><use transform="matrix(0.06172839506172839,0,0,0.06172839506172839,6.172839506172839,0)" xlink:href="#L"/><use transform="matrix(0.06172839506172839,0,0,0.06172839506172839,15.987654320987653,0)" xlink:href="#J"/><use transform="matrix(0.06172839506172839,0,0,0.06172839506172839,25.80246913580247,0)" xlink:href="#P"/><use transform="matrix(0.06172839506172839,0,0,0.06172839506172839,35.617283950617285,0)" xlink:href="#Q"/><use transform="matrix(0.06172839506172839,0,0,0.06172839506172839,46.72839506172839,0)" xlink:href="#L"/><use transform="matrix(0.06172839506172839,0,0,0.06172839506172839,56.54320987654321,0)" xlink:href="#M"/></g><path fill="#333" d="M90-170c52 0 76 32 76 87 0 54-24 87-77 87-51 0-75-34-75-87 0-54 24-87 76-87zM89-10c39 0 46-35 46-73 0-39-7-73-46-73-39 1-44 34-44 73s6 72 44 73" id="R"/><path fill="#333" d="M124-13C89 8 26 15 26-45v-108c-8-3-24 2-21-12h50v118c-3 37 42 32 69 25v-131l-25-4v-8h54v153c8 3 24-2 21 12h-48" id="S"/><path fill="#333" d="M41-130c7 48 86 23 86 84 0 56-69 57-112 41v-40c20 0 9 29 31 31 35 19 77-26 41-50-27-18-72-13-72-59 0-50 58-52 100-41v36c-19 1-8-25-28-25-21-7-50-1-46 23" id="T"/><g id="i"><use transform="matrix(0.06172839506172839,0,0,0.06172839506172839,0,0)" xlink:href="#P"/><use transform="matrix(0.06172839506172839,0,0,0.06172839506172839,9.814814814814815,0)" xlink:href="#R"/><use transform="matrix(0.06172839506172839,0,0,0.06172839506172839,20.925925925925924,0)" xlink:href="#S"/><use transform="matrix(0.06172839506172839,0,0,0.06172839506172839,32.03703703703704,0)" xlink:href="#M"/><use transform="matrix(0.06172839506172839,0,0,0.06172839506172839,39.382716049382715,0)" xlink:href="#T"/><use transform="matrix(0.06172839506172839,0,0,0.06172839506172839,48.02469135802469,0)" xlink:href="#L"/></g><path fill="#333" d="M13-81c0-71 46-101 114-85l-1-72-28-4v-8h57v238c8 3 24-2 21 12h-47l-2-12C80 23 13-1 13-81zm77-74c-37 1-44 33-45 74 0 38 9 66 45 66 14 0 27-3 36-7v-130c-10-1-24-3-36-3" id="U"/><path fill="#333" d="M125-118c4-37-41-34-68-26v132l23 4v8H8C5-13 21-9 28-12v-141c-7-3-23 1-20-12h47l2 13c31-23 98-29 98 31v109c7 3 23-1 20 12h-72v-8l22-4v-106" id="V"/><g id="j"><use transform="matrix(0.06172839506172839,0,0,0.06172839506172839,0,0)" xlink:href="#T"/><use transform="matrix(0.06172839506172839,0,0,0.06172839506172839,8.641975308641975,0)" xlink:href="#K"/><use transform="matrix(0.06172839506172839,0,0,0.06172839506172839,14.814814814814813,0)" xlink:href="#S"/><use transform="matrix(0.06172839506172839,0,0,0.06172839506172839,25.925925925925924,0)" xlink:href="#U"/><use transform="matrix(0.06172839506172839,0,0,0.06172839506172839,37.03703703703704,0)" xlink:href="#L"/><use transform="matrix(0.06172839506172839,0,0,0.06172839506172839,46.851851851851855,0)" xlink:href="#V"/><use transform="matrix(0.06172839506172839,0,0,0.06172839506172839,57.96296296296296,0)" xlink:href="#K"/></g><g id="k"><use transform="matrix(0.06172839506172839,0,0,0.06172839506172839,0,0)" xlink:href="#N"/><use transform="matrix(0.06172839506172839,0,0,0.06172839506172839,6.172839506172839,0)" xlink:href="#U"/></g><g id="l"><use transform="matrix(0.06172839506172839,0,0,0.06172839506172839,0,0)" xlink:href="#V"/><use transform="matrix(0.06172839506172839,0,0,0.06172839506172839,11.11111111111111,0)" xlink:href="#J"/><use transform="matrix(0.06172839506172839,0,0,0.06172839506172839,20.925925925925924,0)" xlink:href="#I"/><use transform="matrix(0.06172839506172839,0,0,0.06172839506172839,38.20987654320987,0)" xlink:href="#L"/></g><path fill="#333" d="M166-85c3 67-44 102-111 85l1 64 29 4v9H6v-9l21-4v-217c-7-3-22 1-19-12h46l1 9c11-8 26-14 45-14 47 2 64 36 66 85zM56-13c53 14 83-14 78-72 7-53-33-79-78-60v132" id="W"/><path fill="#333" d="M240-154L185 4h-14l-41-109L90 4H77L20-153c-7-3-23 1-20-12h79v8l-27 4L91-41l40-108h14l40 109 38-113-28-4v-8h63v8" id="X"/><g id="m"><use transform="matrix(0.06172839506172839,0,0,0.06172839506172839,0,0)" xlink:href="#W"/><use transform="matrix(0.06172839506172839,0,0,0.06172839506172839,11.11111111111111,0)" xlink:href="#J"/><use transform="matrix(0.06172839506172839,0,0,0.06172839506172839,20.925925925925924,0)" xlink:href="#T"/><use transform="matrix(0.06172839506172839,0,0,0.06172839506172839,29.5679012345679,0)" xlink:href="#T"/><use transform="matrix(0.06172839506172839,0,0,0.06172839506172839,38.20987654320987,0)" xlink:href="#X"/><use transform="matrix(0.06172839506172839,0,0,0.06172839506172839,54.197530864197525,0)" xlink:href="#R"/><use transform="matrix(0.06172839506172839,0,0,0.06172839506172839,65.30864197530863,0)" xlink:href="#M"/><use transform="matrix(0.06172839506172839,0,0,0.06172839506172839,72.65432098765432,0)" xlink:href="#U"/></g><path fill="#333" d="M120-19l41 4V0H29v-15l41-4v-178l-41 13v-15l66-39h25v219" id="Y"/><use transform="matrix(0.04938271604938272,0,0,0.04938271604938272,0,0)" xlink:href="#Y" id="n"/><path fill="#333" d="M127-114c3-31-26-38-50-25v123l15 4V0H10v-12l16-4v-133l-16-5v-11h64l2 14c31-23 102-32 102 30v105l17 4V0h-82v-12l14-4v-98" id="Z"/><use transform="matrix(0.04938271604938272,0,0,0.04938271604938272,0,0)" xlink:href="#Z" id="o"/><path fill="#333" d="M484-1058c68-17 80-131 0-182-46-28-125-102-216-125 91 97 114 119 165 256 11 28 28 51 51 51zm17 318c0-51 91-63 34-102-23-11-46-34-74-63-51 85-222 51-353 57 28 91 193 40 296 51v722c0 40-23 63-63 85 34 34 63 68 80 108C535 44 643-47 740-155l-6-17c-80 46-154 85-233 108v-677zm1223-438c0-46 108-91 23-131-28-17-63-40-97-74l-63 63H916l-119-63c51 222 11 523 23 785 6 51 57 0 85 0 28-11 11-46 17-74h290v199H649l34 51h455C1007-149 836 5 592 141l11 23c279-114 455-267 609-506v643c17 28 85-6 91-34v-688h17c34 188 262 472 370 540 63-46 125-68 193-68V34c-279-97-393-188-535-455h489c57 0 57-40 11-63-51-23-85-68-114-102l-97 114h-336v-199h324c-17 74 34 57 80 34 11-6 17-11 17-17v-523zM922-722v-245h290v245H922zm381-245h324v245h-324v-245zm-381-57v-239h290v239H922zm381-239h324v239h-324v-239" id="aa"/><use transform="matrix(0.010850694444444444,0,0,0.010850694444444444,0,0)" xlink:href="#aa" id="p"/><path fill="#333" d="M882-922v-563h831v563H882zm-319-45c51 165 142 307 239 421l-80 119c-68-97-142-222-182-341l17 1007H426l11-956c-57 182-154 358-250 506l-74-114c131-182 233-387 302-643H148v-108h279v-279c-74 23-148 34-210 46l-51-119c205-17 387-85 546-154l74 97-228 91v319h256v108H564zm1172 256c-119 34-250 68-387 85v273h461v114h-461V68h404v108H825V68h398v-307H762v-114h461v-256c-114 23-228 40-353 40l-40-119c302-11 597-57 836-131zm-722-319h575v-341h-575v341" id="ab"/><use transform="matrix(0.010850694444444444,0,0,0.010850694444444444,0,0)" xlink:href="#ab" id="q"/><path fill="#333" d="M660 119V-6H330v165H205v-1445h188c40-102 63-193 85-307l131 28-91 279h273V119H660zm597-1683c-23 97-63 205-91 296h563l-40 1070c6 313-142 478-484 393l-34-137c119 6 313 80 347-57 74-313 74-757 74-1155h-472c-63 131-137 262-233 370l-91-91c165-188 267-432 330-717zM330-125h330v-495H330v495zm0-609h330v-438H330v438zm950 393c-68-159-159-302-245-444l102-63 256 438" id="ac"/><use transform="matrix(0.010850694444444444,0,0,0.010850694444444444,0,0)" xlink:href="#ac" id="r"/><path fill="#333" d="M1149 63c119 6 302 74 302-57v-796c-142 290-336 523-586 717l-74-102c284-233 523-535 660-910H950v-114h501v-393h137v393h210v114h-210V36c11 205-222 182-404 159zM609-1087c57 222 159 438 302 592l-85 114C724-500 644-671 587-836l11 1075H461l11-1013c-63 199-159 393-273 552l-80-114c159-205 262-478 336-751H182v-114h279v-393h137v393h302v114H610" id="ad"/><use transform="matrix(0.010850694444444444,0,0,0.010850694444444444,0,0)" xlink:href="#ad" id="s"/><path fill="#333" d="M126-114c3-31-27-37-49-25v123l15 4V0H10v-12l16-4v-133l-16-5v-11h64l2 14c24-16 81-33 96 3 30-24 105-39 105 27v105l17 4V0h-82v-12l14-4v-98c4-33-27-37-51-24 5 35 0 82 2 122l17 4V0h-83v-12l15-4v-98" id="ae"/><use transform="matrix(0.04938271604938272,0,0,0.04938271604938272,0,0)" xlink:href="#ae" id="t"/><path fill="#333" d="M148 307C541 68 671-74 728-546h540l11 853c28-17 80-17 85-57v-796h472c57 0 57-40 11-63-51-23-97-63-125-97l-97 108h-262v-649h353c63 0 57-46 11-68-51-23-85-63-114-97l-91 108H242l28 57h364l-6 649H116l28 51h478C571-103 457 28 127 289zm1121-904H734c11-205 6-432 6-649h529v649" id="af"/><use transform="matrix(0.010850694444444444,0,0,0.010850694444444444,0,0)" xlink:href="#af" id="u"/><path fill="#333" d="M478-1121c34 85 119 46 108-51-40-125-171-216-319-279 125 131 137 154 210 330zm85 421c0-57 114-74 34-114-23-11-51-34-80-68-74 74-262 28-393 40l28 57h307V34c0 40-17 63-40 85 34 34 63 74 80 108C607 125 766-6 829-160 744-69 653-1 562 50v-751zm945-222c11-148-40-353 63-410-23-46-80-57-108-114l-63 74h-267l-131-74c6 63 6 154 6 262 0 279-68 370-228 478l11 11c256-137 319-222 330-626h284c34 205-102 558 159 540 137-11 279-6 319-85 6-17-80-97-102-91-34 51-85 97-216 91-34 0-57-17-57-57zM671 290c284-85 472-171 614-296 114 108 290 216 449 256 34-51 91-85 165-102v-23c-233-17-404-91-540-193 97-97 188-228 279-398 23-28 125-34 57-85-23-17-57-57-80-102l-85 68H779c11 74 114 57 199 57 85 222 165 381 250 466-142 119-324 239-563 341zm336-819h540c-74 176-159 313-256 410-102-114-199-228-284-410" id="ag"/><use transform="matrix(0.010850694444444444,0,0,0.010850694444444444,0,0)" xlink:href="#ag" id="v"/><use transform="matrix(0.010850694444444444,0,0,0.010850694444444444,0,0)" xlink:href="#aa" id="w"/><use transform="matrix(0.010850694444444444,0,0,0.010850694444444444,0,0)" xlink:href="#ab" id="x"/><path fill="#333" d="M415-1434c114 119 148 228 216 319 68 6 85-114 34-159-23-34-102-91-233-182zm427-22c102 125 131 239 199 336 63 6 85-114 34-165-23-34-97-102-216-199zM233-757c91-28 114-125 119-250h1320c-46 85-85 159-125 205l17 17c91-46 125-165 262-188 51-6 46-63 11-80-40-17-68-51-102-91l-80 85h-324c91-68 171-165 245-284 40-23 125-51 28-85-34-17-68-34-102-57-51 193-119 273-222 427H358v-97h-28c-11 188-97 239-165 347 11 34 28 51 68 51zm808 416c-28-91 68-119 28-154 137-57 222-188 410-222 51-6 63-51 11-74-40-17-74-51-108-97l-80 68H415l28 57h859l-279 256c-34-6-68-11-102-23 11 40 17 114 17 188H119l28 57h791v404c-23 74-205 28-273 23v23c108 23 159 74 193 142 74 0 182-85 182-188v-404h796c57 0 57-51 6-68-57-34-97-68-125-108l-102 119h-575" id="ah"/><use transform="matrix(0.010850694444444444,0,0,0.010850694444444444,0,0)" xlink:href="#ah" id="y"/><path fill="#333" d="M137-745c171-222 250-466 319-757l131 34c-34 108-46 193-85 290h393v-415h125v415h660v119h-660v444h552v119h-552V44h751v119H155V44h740v-540H366v-119h529v-444H463c-63 148-131 262-222 393" id="ai"/><use transform="matrix(0.010850694444444444,0,0,0.010850694444444444,0,0)" xlink:href="#ai" id="z"/><path fill="#333" d="M1280-1098c0-125-11-273 40-336-28-23-102-23-148-51 28 97 11 262 17 387H933c40-40 46-176 125-210 34-57-80-57-114-97-74 307-119 398-307 580l11 17c119-80 199-148 250-239h290v302H619l28 51h381C988-324 914-102 664 40l6 17c307-119 415-358 461-751h171v484c6 216 0 245 199 245 267 0 296 23 381-80 0-11-80-46-68-74-11-57 11-148-23-182-40 193-28 284-302 256-102-11-85-23-85-165v-484h432c57 6 51-51 6-63-46-28-80-57-108-91l-97 102h-358v-302h438c46 6 40-40 11-57-46-17-85-51-114-91l-91 97h-245zm-814-23c51-11 85-102 34-154-23-23-137-114-273-154 97 85 165 176 205 284 11 17 17 23 34 23zM319 51c239 302 916 182 1456 210 51-68 102-119 148-137v-23C1650 147 541 260 364 16c154-142 216-250 307-489 28-17 108-28 46-80-23-23-51-57-80-97-28 68-119 68-222 63 63-102 97-239 188-313 63-51-40-63-63-108l-57 63H119l28 57h336L255-484c46 34 125 0 131-46h193C511-263 477-189 351-1c-6-6-23-11-28 0-74 97-159 159-256 205 51 17 74 142 97 74 57-74 108-154 154-228" id="aj"/><use transform="matrix(0.010850694444444444,0,0,0.010850694444444444,0,0)" xlink:href="#aj" id="A"/><use transform="matrix(0.010850694444444444,0,0,0.010850694444444444,0,0)" xlink:href="#aa" id="B"/></defs></g></svg>